<?xml version="1.0" standalone="no"?>
<!DOCTYPE svg PUBLIC "-//W3C//DTD SVG 20010904//EN"
 "http://www.w3.org/TR/2001/REC-SVG-20010904/DTD/svg10.dtd">
<svg version="1.0" xmlns="http://www.w3.org/2000/svg"
 width="409.000000pt" height="419.000000pt" viewBox="0 0 409.000000 419.000000"
 preserveAspectRatio="xMidYMid meet">

<g transform="translate(0.000000,419.000000) scale(0.100000,-0.100000)"
fill="#000000" stroke="none">
<path d="M1560 3730 c-434 -28 -750 -67 -1005 -127 -154 -36 -245 -67 -352
-119 -104 -51 -171 -115 -191 -182 -8 -26 -12 -130 -12 -311 0 -289 4 -317 51
-367 15 -16 21 -39 24 -86 7 -141 70 -206 209 -217 68 -6 70 -7 100 -50 50
-71 89 -85 236 -89 85 -2 142 1 177 11 49 13 54 13 70 -6 10 -10 38 -31 63
-45 42 -25 53 -27 200 -30 115 -2 169 1 210 12 l55 15 30 -29 c62 -57 75 -60
313 -60 208 0 221 1 264 23 l45 23 43 -23 c41 -22 53 -23 262 -23 238 0 251 3
313 60 l30 29 55 -15 c41 -11 94 -14 210 -11 167 4 206 14 258 69 22 24 24 25
75 11 35 -10 93 -13 177 -11 146 4 184 18 239 89 32 43 35 44 100 50 84 6 137
33 176 88 25 36 30 53 33 119 3 63 8 82 27 102 44 49 45 56 45 370 0 334 -1
341 -65 403 -153 148 -602 259 -1275 313 -226 18 -982 27 -1190 14z m1215
-144 c475 -43 867 -123 1062 -217 126 -60 123 -54 123 -295 0 -112 -2 -204 -5
-204 -3 0 -16 7 -29 15 -41 27 -108 30 -160 7 l-46 -21 -33 35 c-17 20 -52 48
-77 63 -40 23 -56 26 -135 26 -78 0 -97 -4 -140 -27 -27 -14 -59 -35 -69 -47
-26 -29 -39 -26 -70 13 -15 20 -53 48 -91 67 -60 29 -70 31 -147 27 -94 -5
-171 -34 -227 -86 -18 -18 -38 -32 -45 -32 -6 0 -21 15 -34 34 -108 158 -401
153 -551 -9 -23 -25 -44 -45 -48 -45 -3 0 -32 24 -63 54 -31 29 -74 63 -96 74
-55 28 -154 46 -218 39 -98 -10 -137 -27 -199 -89 -32 -32 -61 -58 -64 -58 -3
0 -21 14 -40 30 -18 17 -57 42 -86 57 -46 24 -63 27 -152 28 -115 0 -162 -18
-226 -86 l-36 -39 -60 40 c-139 92 -298 78 -399 -37 -30 -34 -32 -35 -55 -20
-13 9 -47 19 -76 23 -43 5 -60 3 -93 -15 -22 -11 -43 -21 -45 -21 -3 0 -5 97
-5 214 l0 215 33 25 c169 129 676 231 1397 280 30 2 273 2 540 1 352 -2 534
-7 665 -19z m-960 -680 c63 -29 111 -77 141 -141 23 -48 24 -58 24 -299 0
-218 -2 -252 -17 -268 -15 -16 -35 -18 -219 -18 l-203 0 -20 26 c-20 26 -21
38 -21 298 0 242 2 275 19 311 49 107 178 147 296 91z m688 -6 c46 -31 85 -92
92 -144 4 -22 5 -155 3 -294 -3 -238 -4 -255 -22 -268 -16 -11 -63 -14 -221
-14 -193 0 -203 1 -221 21 -18 20 -19 39 -19 273 0 281 2 289 72 366 58 65
122 92 209 88 55 -3 79 -9 107 -28z m-1278 -19 c22 -10 57 -36 77 -59 64 -71
68 -89 68 -327 l0 -214 -27 -21 c-26 -20 -37 -21 -185 -18 -217 4 -202 -14
-206 258 -5 283 6 329 89 379 43 27 128 28 184 2z m1830 -4 c26 -14 48 -37 63
-67 21 -42 22 -55 22 -286 l0 -243 -27 -21 c-26 -20 -37 -21 -186 -18 -212 4
-197 -17 -197 267 0 187 3 221 19 256 20 44 78 100 125 121 49 21 135 17 181
-9z m-2350 -26 c43 -19 90 -67 108 -110 6 -16 9 -99 8 -211 -1 -149 -5 -188
-17 -200 -12 -12 -43 -15 -150 -15 -185 0 -174 -15 -174 252 0 227 5 248 63
283 41 25 109 25 162 1z m2843 -1 c67 -41 72 -62 72 -286 0 -258 6 -248 -146
-252 -126 -5 -176 7 -192 43 -15 33 -16 316 -1 370 32 117 172 183 267 125z
m-3258 -85 c46 -24 54 -49 58 -187 l4 -128 -51 0 c-87 0 -107 39 -99 200 3 68
8 94 23 110 22 24 27 24 65 5z m3576 1 c17 -13 19 -29 22 -144 3 -122 2 -132
-18 -152 -17 -17 -31 -20 -68 -18 l-47 3 -3 120 c-3 132 6 168 47 190 33 18
43 18 67 1z"/>
<path d="M589 1996 c-20 -7 -49 -22 -65 -33 l-29 -21 -50 29 c-86 50 -189 31
-254 -47 -38 -47 -51 -96 -51 -196 0 -65 -4 -89 -16 -99 -43 -36 -46 -57 -45
-371 2 -333 1 -328 70 -391 210 -189 972 -317 1896 -317 936 0 1690 128 1902
323 73 67 73 68 73 407 l0 300 -35 39 c-35 38 -35 39 -35 134 0 106 -9 138
-48 181 -64 68 -154 83 -241 40 l-53 -27 -60 32 c-57 29 -67 31 -167 31 -118
0 -170 -16 -216 -66 -25 -26 -26 -27 -68 -13 -27 9 -86 14 -167 14 -143 0
-189 -14 -253 -79 -20 -20 -40 -36 -44 -36 -3 0 -26 9 -50 21 -52 25 -200 36
-336 24 -77 -6 -94 -11 -138 -41 -57 -38 -71 -41 -90 -18 -7 8 -31 25 -53 37
-38 20 -55 22 -221 22 -178 0 -180 0 -227 -28 l-47 -27 -48 48 c-69 69 -130
86 -276 79 -62 -3 -126 -11 -143 -18 -30 -12 -34 -11 -75 24 -23 21 -59 42
-78 47 -51 14 -219 12 -262 -4z m202 -116 c20 -6 44 -19 54 -30 18 -20 18 -23
2 -73 -12 -38 -18 -99 -21 -222 -3 -93 -5 -171 -5 -172 -1 0 -22 -8 -48 -17
-62 -21 -106 -20 -153 4 -64 33 -70 54 -70 256 0 174 0 178 25 210 38 49 130
68 216 44z m2694 -14 c58 -38 65 -65 65 -250 0 -154 -2 -172 -21 -203 -37 -59
-96 -76 -184 -52 -75 20 -75 21 -75 213 0 149 -3 177 -20 215 -19 41 -19 45
-3 63 9 10 30 23 47 28 46 14 161 6 191 -14z m-3110 -2 c25 -10 45 -59 45
-114 0 -70 -20 -113 -60 -130 -60 -25 -90 17 -90 126 0 57 4 77 21 98 20 25
50 33 84 20z m3426 -20 c19 -21 24 -38 27 -98 7 -127 -39 -171 -110 -107 -30
27 -33 34 -36 106 -4 69 -2 79 19 101 30 32 69 31 100 -2z m-2511 -42 c19 -9
45 -32 57 -51 22 -32 23 -44 23 -213 0 -158 -2 -183 -20 -217 -45 -88 -114
-131 -213 -131 -73 0 -115 22 -154 78 -29 44 -36 106 -31 298 3 177 9 197 71
234 44 27 215 29 267 2z m1779 -2 c65 -32 71 -58 71 -289 0 -221 -5 -244 -63
-291 -23 -18 -45 -25 -93 -28 -77 -5 -119 8 -174 55 -72 62 -80 90 -80 298 0
163 2 183 20 213 29 48 69 61 183 62 78 0 106 -4 136 -20z m-1162 -67 c69 -32
74 -53 71 -268 -3 -210 -10 -236 -73 -300 -56 -55 -98 -70 -205 -69 -104 0
-142 13 -179 60 -20 25 -21 39 -21 261 0 259 4 277 63 313 28 17 51 20 170 20
109 0 147 -4 174 -17z m624 -6 c64 -42 69 -66 69 -310 0 -249 -5 -273 -68
-304 -56 -27 -213 -25 -267 4 -51 27 -97 75 -126 133 -21 41 -24 61 -27 211
-4 149 -2 171 15 211 31 68 59 77 229 78 130 0 144 -2 175 -23z m-2277 -231
c28 -12 57 -17 100 -14 l61 3 6 -48 c14 -89 81 -167 173 -199 63 -22 105 -22
179 -3 32 8 60 15 62 15 3 0 13 -17 24 -37 23 -45 82 -104 131 -129 27 -15 57
-19 136 -19 98 0 104 1 175 38 80 41 75 42 111 -22 53 -96 246 -147 402 -106
74 19 129 52 186 110 l44 45 51 -49 c93 -91 198 -128 335 -118 41 3 96 13 122
22 56 20 130 82 148 125 7 17 15 29 19 28 3 -2 37 -18 74 -37 55 -28 83 -35
145 -39 91 -5 142 7 205 48 39 26 98 97 109 131 2 6 30 3 68 -7 145 -37 268
15 329 137 17 34 31 75 31 90 l0 29 58 -6 c53 -6 79 0 145 34 4 2 7 -118 7
-267 l0 -270 -32 -24 c-265 -199 -1294 -318 -2293 -267 -669 35 -1288 172
-1352 300 -14 28 -19 535 -5 528 4 -2 25 -12 46 -22z"/>
</g>
</svg>
