<?xml version="1.0" standalone="no"?>
<!DOCTYPE svg PUBLIC "-//W3C//DTD SVG 20010904//EN"
 "http://www.w3.org/TR/2001/REC-SVG-20010904/DTD/svg10.dtd">
<svg version="1.0" xmlns="http://www.w3.org/2000/svg"
 width="421.000000pt" height="409.000000pt" viewBox="0 0 421.000000 409.000000"
 preserveAspectRatio="xMidYMid meet">

<g transform="translate(0.000000,409.000000) scale(0.100000,-0.100000)"
fill="#000000" stroke="none">
<path d="M90 4000 c-20 -20 -20 -33 -20 -1958 0 -1658 2 -1941 14 -1958 14
-19 39 -19 1163 -22 631 -1 1162 0 1180 3 67 12 63 -49 63 866 0 456 3 829 7
829 17 0 95 -70 122 -111 75 -114 169 -501 191 -788 5 -74 10 -228 10 -343 0
-183 2 -215 20 -265 71 -203 344 -251 489 -86 58 65 134 261 186 478 43 180
56 308 65 615 13 426 41 541 216 885 146 287 199 457 224 725 32 337 -74 654
-297 891 -124 131 -237 201 -382 238 -72 18 -114 21 -281 21 -227 0 -364 -20
-482 -70 -40 -16 -76 -30 -80 -30 -5 0 -8 15 -8 33 0 72 95 67 -1208 67 -1159
0 -1172 0 -1192 -20z m2278 -1957 c1 -1019 -1 -1854 -5 -1854 -26 -5 -2123 -7
-2146 -3 l-27 6 0 1854 0 1854 1088 -2 1087 -3 3 -1852z m963 1834 c113 -37
228 -117 320 -222 262 -300 321 -675 177 -1140 -19 -61 -69 -175 -128 -290
-53 -104 -105 -212 -115 -240 -10 -27 -22 -54 -25 -60 -14 -19 -53 -161 -71
-260 -14 -73 -22 -179 -29 -390 -11 -348 -12 -362 -50 -541 -46 -217 -124
-438 -174 -492 -76 -84 -219 -65 -273 37 -22 42 -23 53 -23 270 0 402 -39 677
-142 991 -59 181 -118 262 -239 324 l-64 33 -3 941 -2 941 62 30 c76 35 182
68 263 80 95 15 461 6 516 -12z"/>
<path d="M342 3748 c-9 -9 -12 -401 -12 -1703 0 -1626 1 -1693 18 -1708 17
-16 96 -17 935 -17 l916 0 20 26 21 27 0 1671 c0 1497 -2 1674 -16 1694 l-15
22 -928 0 c-708 0 -930 -3 -939 -12z m558 -127 c0 -10 -8 -25 -17 -32 -28 -24
-111 -214 -140 -322 -25 -95 -27 -116 -26 -297 0 -173 4 -209 27 -315 38 -171
79 -287 154 -433 114 -223 134 -265 167 -357 66 -181 95 -385 95 -666 0 -204
23 -402 66 -572 19 -78 38 -152 41 -165 l5 -22 -408 2 -409 3 -3 1598 -2 1597
225 0 c213 0 225 -1 225 -19z m1213 12 c2 -5 1 -48 -2 -98 l-6 -89 -135 -3
c-74 -1 -171 -5 -215 -7 -284 -17 -553 -245 -634 -536 -53 -191 -35 -351 64
-565 162 -350 210 -553 225 -936 5 -130 16 -281 24 -335 8 -54 17 -135 21
-179 11 -131 25 -209 42 -227 30 -33 83 -17 97 30 3 9 46 209 95 444 50 235
101 454 115 486 47 117 137 225 246 296 63 41 71 36 62 -44 -4 -35 -13 -53
-43 -83 -69 -70 -112 -162 -167 -363 -69 -253 -100 -476 -108 -779 -2 -99 -4
-186 -4 -192 0 -10 -43 -13 -182 -13 -101 0 -188 4 -194 8 -23 14 -90 259
-115 420 -5 37 -14 200 -19 362 -14 473 -48 610 -243 991 -136 265 -190 452
-203 696 -14 250 42 452 179 651 l49 72 524 0 c287 0 525 -3 527 -7z m1 -335
c0 -10 -1 -288 -2 -618 l-2 -600 -62 -31 c-35 -17 -85 -47 -112 -67 -65 -47
-168 -170 -200 -237 -30 -65 -50 -73 -42 -17 3 20 11 93 17 162 l11 125 94 95
c90 91 95 98 124 184 16 50 30 95 30 101 0 9 -81 45 -102 45 -4 0 -19 -38 -34
-84 -18 -58 -37 -97 -60 -121 -46 -50 -56 -39 -49 48 6 67 12 81 90 212 121
205 113 177 75 255 l-32 67 61 82 61 83 0 104 0 104 -60 0 -60 0 0 -83 c0 -72
-3 -87 -25 -120 -14 -20 -30 -37 -35 -37 -6 0 -25 29 -42 65 -18 36 -38 65
-46 65 -10 0 -87 -34 -99 -44 -2 -1 36 -78 82 -171 47 -92 85 -174 85 -182 0
-16 -58 -121 -72 -129 -6 -4 -35 18 -64 47 -52 52 -55 58 -80 159 -13 58 -29
109 -34 114 -13 13 -110 -13 -110 -30 0 -8 10 -53 21 -100 24 -96 24 -98 -42
-109 -21 -4 -45 -12 -54 -19 -16 -12 -16 -15 1 -64 10 -29 21 -52 25 -52 3 0
37 11 76 24 l71 24 58 -59 58 -59 -17 -35 c-14 -30 -17 -69 -17 -238 0 -111
-5 -235 -10 -276 -5 -41 -14 -135 -20 -210 -15 -199 -21 -252 -29 -246 -5 2
-11 55 -14 117 -14 250 -84 517 -208 794 -39 86 -77 184 -86 218 -22 80 -21
222 1 306 56 210 235 389 446 444 40 11 106 14 245 13 174 -2 190 -3 189 -19z
m-2 -2271 l-3 -588 -92 3 -92 3 1 240 c0 248 12 362 55 560 38 175 116 409
128 384 3 -8 5 -279 3 -602z"/>
</g>
</svg>
