<?xml version="1.0" standalone="no"?>
<!DOCTYPE svg PUBLIC "-//W3C//DTD SVG 20010904//EN"
 "http://www.w3.org/TR/2001/REC-SVG-20010904/DTD/svg10.dtd">
<svg version="1.0" xmlns="http://www.w3.org/2000/svg"
 width="396.000000pt" height="419.000000pt" viewBox="0 0 396.000000 419.000000"
 preserveAspectRatio="xMidYMid meet">

<g transform="translate(0.000000,419.000000) scale(0.100000,-0.100000)"
fill="#000000" stroke="none">
<path d="M1685 4107 c-62 -21 -97 -42 -142 -87 -40 -40 -53 -62 -87 -142 l-15
-38 -111 0 c-155 0 -187 -18 -199 -112 l-6 -53 -387 -5 -388 -5 -30 -30 c-20
-20 -32 -45 -37 -75 -5 -25 -6 -782 -3 -1682 l5 -1638 33 -32 32 -33 1047 -3
c965 -2 1048 -1 1065 14 20 19 23 50 8 74 -8 13 -139 16 -1047 20 l-1038 5 0
1640 0 1640 370 0 370 0 0 -50 0 -50 -298 -2 c-214 -1 -302 -5 -313 -14 -12
-10 -14 -222 -14 -1525 0 -1362 2 -1514 16 -1528 14 -14 108 -16 885 -16 856
0 869 0 889 20 25 25 25 45 0 70 -20 20 -30 20 -847 20 -454 -1 -830 3 -835 8
-4 4 -7 649 -6 1433 l3 1424 260 0 259 0 8 -41 c5 -23 20 -52 34 -65 l26 -24
584 0 584 0 26 27 c15 15 30 43 33 65 l6 38 260 0 260 0 5 -680 c3 -374 9
-686 13 -692 10 -16 59 -17 75 -1 17 17 17 1449 0 1466 -9 9 -90 12 -304 12
-324 0 -318 -1 -312 67 l3 38 350 3 c193 1 360 0 373 -3 l22 -5 0 -835 c0
-822 0 -835 20 -855 25 -25 45 -25 70 0 20 20 20 33 20 855 0 907 2 879 -55
923 -27 22 -33 22 -404 22 -280 0 -380 3 -389 12 -7 7 -12 30 -12 53 -1 43
-11 61 -50 88 -20 14 -48 17 -143 17 -103 0 -118 2 -124 18 -38 114 -91 181
-177 224 -71 36 -174 47 -241 25z m214 -132 c52 -35 101 -116 101 -166 0 -65
8 -68 170 -71 l145 -3 0 -205 0 -205 -520 -3 c-286 -1 -530 0 -543 3 l-22 5 2
203 3 202 148 5 c161 5 166 8 167 65 0 45 44 129 82 158 52 40 77 47 154 44
60 -2 78 -7 113 -32z"/>
<path d="M1735 3870 c-33 -13 -48 -38 -48 -81 0 -88 96 -126 154 -61 39 43 38
84 0 123 -30 30 -65 36 -106 19z"/>
<path d="M940 3099 c-85 -38 -155 -122 -184 -221 -32 -111 -13 -206 67 -346
26 -44 49 -99 53 -122 4 -23 1 -108 -6 -189 -14 -167 -7 -231 37 -321 33 -69
131 -166 205 -202 67 -34 79 -34 114 -5 l27 24 -12 99 c-13 113 -4 210 28 295
63 165 154 116 197 -105 15 -76 16 -98 4 -184 -14 -111 -8 -137 37 -148 49
-13 184 75 253 163 18 24 44 71 58 105 29 71 33 149 17 361 l-8 117 62 123
c71 142 88 210 72 299 -28 159 -149 278 -282 278 -46 0 -280 -57 -309 -75 -4
-3 -67 13 -140 35 -154 46 -221 51 -290 19z m260 -121 c129 -38 170 -39 285
-5 189 56 234 54 299 -9 52 -50 76 -111 76 -189 0 -56 -5 -74 -41 -142 -95
-179 -92 -172 -93 -263 0 -47 3 -141 8 -210 8 -115 7 -129 -13 -182 -23 -59
-105 -158 -132 -158 -11 0 -14 21 -15 108 -1 271 -136 448 -284 370 -93 -50
-149 -179 -155 -363 -2 -60 -8 -111 -13 -113 -16 -5 -88 67 -114 115 -41 75
-48 143 -30 305 18 172 9 217 -69 356 -46 83 -53 101 -57 166 -4 59 0 81 18
123 26 61 64 100 116 118 47 17 77 13 214 -27z"/>
<path d="M2118 2945 c-9 -19 -8 -29 6 -50 l16 -25 319 0 c295 0 319 1 334 18
20 22 22 53 5 70 -9 9 -98 12 -340 12 l-328 0 -12 -25z"/>
<path d="M2127 2702 c-22 -24 -21 -45 1 -65 16 -15 55 -17 334 -17 292 0 316
1 331 18 20 22 22 53 5 70 -9 9 -97 12 -333 12 -299 0 -323 -1 -338 -18z"/>
<path d="M2126 2454 c-21 -21 -20 -47 2 -67 16 -15 55 -17 334 -17 292 0 316
1 331 18 20 22 22 53 5 70 -9 9 -97 12 -334 12 -280 0 -325 -2 -338 -16z"/>
<path d="M2126 2198 c-21 -29 -20 -41 2 -61 16 -15 55 -17 334 -17 292 0 316
1 331 18 20 22 22 53 5 70 -9 9 -97 12 -334 12 -322 0 -323 0 -338 -22z"/>
<path d="M2974 1840 c-22 -9 -290 -121 -404 -170 -36 -15 -132 -56 -213 -90
-82 -35 -155 -69 -162 -76 -16 -17 -30 -235 -21 -325 23 -214 46 -322 100
-463 98 -259 323 -489 610 -627 47 -23 97 -42 111 -42 34 0 180 72 278 137
310 203 481 485 532 874 15 116 19 322 7 402 -9 57 30 36 -472 248 -91 38
-204 86 -251 106 -47 20 -88 36 -90 35 -2 0 -14 -4 -25 -9z m276 -210 c118
-50 265 -112 325 -137 61 -25 116 -51 124 -57 22 -17 9 -385 -17 -496 -55
-228 -136 -376 -288 -527 -112 -112 -333 -253 -395 -253 -22 0 -183 82 -242
123 -239 166 -383 383 -447 674 -28 126 -41 465 -19 479 8 5 169 75 359 155
258 110 349 145 365 139 11 -5 117 -49 235 -100z"/>
<path d="M2838 1422 c-23 -4 -27 -26 -31 -142 l-2 -95 -112 -5 c-147 -7 -142
1 -143 -196 0 -114 3 -155 14 -170 12 -16 30 -20 128 -24 l113 -5 3 -109 c1
-61 8 -116 14 -123 8 -10 51 -13 173 -13 203 0 195 -6 195 143 l0 107 103 0
c152 0 147 -7 147 195 0 202 5 195 -147 195 l-103 0 0 110 c0 144 4 142 -191
138 -79 -2 -152 -4 -161 -6z m250 -217 c2 -89 6 -112 19 -122 11 -9 53 -13
120 -13 75 0 103 -3 104 -12 3 -39 4 -145 1 -155 -3 -8 -30 -11 -95 -8 -61 3
-100 0 -117 -8 -24 -12 -25 -17 -30 -122 l-5 -110 -87 -3 -88 -3 0 109 c0 90
-3 112 -17 123 -11 10 -52 15 -125 17 l-108 4 0 84 0 84 103 0 c146 0 147 1
147 141 l0 110 88 -3 87 -3 3 -110z"/>
<path d="M1024 1413 c-44 -54 -91 -113 -104 -130 -13 -18 -29 -33 -35 -33 -6
0 -32 23 -58 50 -26 28 -53 50 -60 50 -26 0 -57 -31 -57 -58 0 -39 147 -185
181 -180 31 4 289 318 289 352 0 29 -18 46 -50 46 -20 0 -42 -20 -106 -97z"/>
<path d="M1302 1464 c-28 -20 -28 -58 0 -78 19 -14 72 -16 371 -16 l348 0 24
24 c26 26 25 51 -3 74 -12 9 -101 12 -367 12 -301 0 -354 -2 -373 -16z"/>
<path d="M1302 1234 c-31 -21 -26 -64 8 -81 19 -9 113 -13 368 -13 l343 0 24
24 c26 26 25 51 -3 74 -12 9 -101 12 -367 12 -305 0 -354 -2 -373 -16z"/>
<path d="M1065 988 c-26 -29 -75 -88 -108 -130 -33 -43 -65 -78 -71 -78 -7 0
-30 18 -51 41 -56 57 -71 64 -101 44 -43 -28 -32 -61 51 -147 51 -54 82 -78
98 -78 28 0 50 23 191 197 105 130 122 163 94 191 -25 25 -56 12 -103 -40z"/>
<path d="M1300 990 c-25 -25 -26 -52 -2 -73 17 -15 57 -17 373 -17 386 0 392
1 392 55 0 54 -6 55 -390 55 -340 0 -354 -1 -373 -20z"/>
<path d="M1300 760 c-25 -25 -26 -52 -2 -73 17 -15 57 -17 375 -17 310 0 358
2 371 16 16 16 20 27 16 54 -4 38 -23 40 -387 40 -340 0 -354 -1 -373 -20z"/>
</g>
</svg>
