<?xml version="1.0" standalone="no"?>
<!DOCTYPE svg PUBLIC "-//W3C//DTD SVG 20010904//EN"
 "http://www.w3.org/TR/2001/REC-SVG-20010904/DTD/svg10.dtd">
<svg version="1.0" xmlns="http://www.w3.org/2000/svg"
 width="402.000000pt" height="412.000000pt" viewBox="0 0 402.000000 412.000000"
 preserveAspectRatio="xMidYMid meet">

<g transform="translate(0.000000,412.000000) scale(0.100000,-0.100000)"
fill="#000000" stroke="none">
<path d="M2736 4097 c-15 -15 -39 -73 -66 -158 -24 -74 -47 -139 -52 -146 -5
-6 -30 -16 -56 -22 -26 -6 -87 -23 -136 -39 -103 -32 -134 -60 -117 -105 9
-23 27 -31 160 -73 l151 -48 14 -40 c8 -23 27 -81 42 -131 38 -126 49 -145 82
-145 16 0 36 6 45 13 9 6 36 76 61 155 24 79 46 145 48 147 2 2 69 24 148 49
145 45 170 60 170 101 0 35 -28 51 -160 90 -69 21 -134 43 -145 50 -14 9 -32
52 -60 146 -38 127 -65 179 -95 179 -6 0 -21 -10 -34 -23z m60 -344 c14 -50
17 -53 70 -72 30 -12 59 -21 64 -21 6 0 10 -4 10 -9 0 -5 -24 -17 -52 -26 -68
-22 -85 -38 -93 -85 -7 -42 -31 -73 -39 -49 -3 8 -10 32 -17 54 -16 56 -24 63
-85 81 -30 8 -56 19 -58 23 -3 4 19 15 48 24 64 20 78 36 101 106 20 60 26 57
51 -26z"/>
<path d="M1105 3723 c-22 -2 -78 -13 -125 -23 -434 -96 -748 -425 -826 -863
-18 -106 -18 -242 1 -353 28 -159 58 -232 163 -389 46 -70 174 -333 211 -436
65 -180 89 -277 166 -684 78 -414 140 -655 198 -769 56 -112 130 -176 202
-176 46 0 112 38 160 93 107 122 257 483 320 772 51 231 131 440 188 493 l24
23 30 -25 c59 -49 125 -219 182 -466 89 -383 251 -751 373 -844 80 -60 154
-59 224 6 79 73 133 193 194 433 35 135 58 251 145 708 57 302 158 581 297
820 44 77 45 110 3 129 -52 23 -84 -15 -189 -227 -30 -60 -61 -128 -69 -150
-106 -283 -128 -368 -197 -745 -80 -442 -142 -681 -208 -803 -26 -49 -68 -97
-84 -97 -4 0 -29 19 -53 41 -92 85 -242 441 -310 734 -80 346 -165 534 -264
585 -49 25 -74 25 -127 1 -46 -21 -105 -92 -147 -176 -30 -61 -96 -273 -127
-410 -75 -328 -236 -696 -334 -760 -24 -16 -28 -16 -51 -1 -83 54 -162 308
-260 836 -26 135 -55 288 -66 340 -64 303 -180 587 -353 863 -95 151 -135 289
-136 468 -1 249 96 478 279 659 176 174 362 256 609 267 220 10 390 -36 568
-153 28 -19 61 -34 72 -34 12 0 53 20 91 45 38 25 105 59 148 76 43 17 86 38
96 47 26 23 22 68 -9 88 -24 16 -29 16 -77 -1 -54 -19 -161 -71 -210 -102 -27
-18 -28 -18 -97 20 -101 55 -195 92 -296 115 -90 21 -255 34 -329 25z"/>
<path d="M3351 3481 c-11 -11 -31 -59 -46 -108 -15 -48 -35 -113 -45 -143 -10
-30 -23 -74 -29 -97 -11 -38 -16 -43 -54 -53 -139 -37 -334 -103 -344 -117 -7
-9 -13 -29 -13 -44 0 -14 6 -31 13 -37 6 -6 89 -34 182 -62 94 -29 179 -58
190 -65 11 -7 26 -34 33 -61 30 -115 95 -310 107 -323 19 -20 66 -17 84 6 9
11 40 101 70 200 l55 181 189 58 c207 64 230 78 211 132 -8 24 -26 32 -174 78
-91 29 -179 57 -195 63 -29 10 -33 19 -85 193 -30 100 -63 191 -72 200 -23 23
-53 23 -77 -1z m73 -369 c27 -108 32 -113 139 -147 100 -31 119 -45 77 -56
-77 -21 -172 -55 -179 -64 -7 -11 -32 -84 -50 -152 -6 -23 -16 -45 -21 -48 -7
-4 -28 53 -66 186 -5 18 -74 48 -158 71 -27 7 -51 18 -53 24 -2 6 39 23 92 39
52 15 99 33 104 39 6 7 22 50 36 96 14 47 28 91 31 99 8 24 30 -16 48 -87z"/>
<path d="M1041 3449 c-163 -33 -344 -137 -447 -257 -137 -161 -204 -364 -191
-581 9 -145 51 -282 90 -289 33 -7 63 7 75 33 10 21 7 38 -14 102 -86 256 -1
554 206 729 122 103 271 156 438 155 139 -1 253 -35 373 -112 25 -16 55 -29
67 -29 21 0 62 43 62 65 0 54 -189 154 -348 185 -125 24 -188 24 -311 -1z"/>
<path d="M2278 3320 c-15 -9 -59 -134 -133 -381 -29 -98 -16 -88 -185 -139
-41 -12 -100 -30 -130 -40 -30 -10 -81 -26 -113 -36 -32 -10 -62 -26 -68 -35
-13 -25 -11 -65 4 -77 6 -5 111 -40 232 -77 121 -37 224 -70 228 -74 4 -4 39
-109 76 -232 62 -204 71 -225 96 -238 24 -12 30 -11 53 6 22 17 38 57 95 244
l69 224 222 68 c121 38 229 76 239 84 25 23 22 69 -7 88 -13 9 -54 25 -92 36
-38 11 -98 29 -134 40 -36 11 -96 29 -135 40 -38 11 -76 26 -83 33 -7 7 -42
109 -78 227 -36 117 -73 222 -82 232 -17 19 -48 22 -74 7z m83 -425 c22 -71
47 -135 55 -141 8 -6 73 -29 144 -50 72 -21 130 -43 130 -50 0 -6 -21 -17 -47
-24 -129 -34 -213 -64 -229 -81 -9 -10 -34 -74 -54 -141 -37 -119 -53 -148
-64 -111 -39 135 -79 253 -89 261 -6 5 -66 27 -132 47 -180 56 -179 51 -19
100 85 27 145 51 154 63 9 11 33 79 55 151 24 84 41 127 47 119 4 -7 26 -71
49 -143z"/>
</g>
</svg>
