<?xml version="1.0" standalone="no"?>
<!DOCTYPE svg PUBLIC "-//W3C//DTD SVG 20010904//EN"
 "http://www.w3.org/TR/2001/REC-SVG-20010904/DTD/svg10.dtd">
<svg version="1.0" xmlns="http://www.w3.org/2000/svg"
 width="409.000000pt" height="412.000000pt" viewBox="0 0 409.000000 412.000000"
 preserveAspectRatio="xMidYMid meet">

<g transform="translate(0.000000,412.000000) scale(0.100000,-0.100000)"
fill="#000000" stroke="none">
<path d="M1295 4108 c-38 -5 -101 -19 -140 -30 -249 -75 -443 -272 -522 -533
-14 -46 -18 -93 -17 -205 0 -133 3 -154 31 -250 17 -58 52 -175 77 -260 129
-446 124 -432 181 -456 19 -8 52 -14 74 -14 l39 0 15 -72 c9 -40 19 -93 23
-118 5 -33 16 -55 44 -82 l38 -38 150 0 c83 0 153 -4 156 -8 9 -15 49 -341 43
-355 -3 -8 -19 -17 -35 -20 -38 -8 -96 -58 -112 -97 -7 -17 -11 -53 -8 -85 4
-44 11 -62 34 -86 35 -38 81 -59 128 -59 38 0 38 -2 52 -127 l6 -61 -43 -13
c-53 -15 -115 -70 -130 -117 -35 -105 63 -224 172 -209 46 6 49 1 52 -112 l2
-74 -43 -14 c-55 -19 -99 -64 -112 -115 -30 -111 44 -208 159 -208 45 0 41 8
59 -113 22 -143 33 -147 379 -147 378 0 364 -10 399 281 13 107 23 197 24 200
0 3 23 11 51 18 91 24 149 110 133 198 -9 45 -65 110 -105 118 -17 4 -32 12
-34 18 -2 7 1 57 8 111 l12 99 54 15 c98 28 153 111 132 202 -12 52 -43 87
-100 112 l-43 20 6 78 c11 118 16 130 61 146 80 27 125 85 125 162 0 68 -41
128 -102 151 -20 8 -28 17 -28 35 0 56 0 56 159 56 210 0 220 8 256 195 l21
110 52 6 c57 7 93 27 117 63 18 27 207 663 230 773 29 139 13 302 -42 441 -30
73 -61 101 -97 84 -37 -17 -40 -54 -11 -125 29 -69 55 -199 55 -267 -1 -74
-44 -248 -119 -485 -10 -33 -31 -103 -46 -155 -14 -52 -33 -113 -41 -135 -8
-23 -14 -48 -14 -58 0 -9 -8 -17 -17 -17 -10 0 -333 0 -719 0 -696 0 -701 0
-727 -21 -33 -25 -35 -62 -5 -83 20 -14 97 -16 641 -16 485 0 619 -3 622 -12
3 -7 -3 -51 -13 -98 l-19 -85 -874 0 -874 0 -17 75 c-29 132 -45 120 152 120
158 0 171 1 191 21 27 27 22 70 -11 86 -18 9 -96 13 -282 13 -141 0 -259 4
-262 8 -11 18 -205 691 -215 746 -51 280 96 570 353 695 160 78 309 89 506 37
174 -45 305 -59 510 -53 183 5 259 16 417 57 221 58 433 20 603 -108 61 -47
81 -51 110 -22 39 39 26 68 -57 127 -101 72 -218 118 -351 137 -62 9 -117 14
-122 11 -5 -3 -46 -10 -90 -15 -44 -5 -104 -16 -133 -24 -115 -34 -219 -48
-382 -53 -145 -4 -188 -2 -295 16 -69 12 -147 28 -175 36 -42 12 -257 48 -259
43 -1 0 -32 -5 -71 -10z m1235 -2085 c0 -66 -4 -69 -133 -104 -67 -18 -142
-38 -167 -45 -25 -7 -99 -26 -165 -44 -202 -52 -307 -81 -378 -103 -41 -13
-71 -17 -76 -11 -9 9 -41 246 -41 304 l0 30 480 0 480 0 0 -27z m110 -183 c11
-11 20 -28 20 -37 0 -21 -29 -53 -48 -53 -9 0 -45 -9 -81 -20 -96 -28 -254
-70 -267 -70 -6 0 -21 -11 -33 -24 -17 -18 -22 -32 -17 -50 10 -40 47 -43 159
-14 81 21 99 23 104 12 8 -20 -18 -183 -31 -193 -6 -5 -24 -11 -41 -13 -28 -5
-190 -47 -450 -118 -128 -35 -268 -70 -279 -70 -10 0 -16 25 -23 88 -6 48 -7
90 -4 94 3 4 91 30 196 58 104 28 197 58 207 67 27 25 23 71 -7 85 -21 9 -43
7 -123 -15 -412 -114 -453 -121 -475 -86 -5 9 -7 28 -3 42 5 20 16 29 49 38
226 63 1105 298 1115 298 6 1 21 -8 32 -19z m-41 -554 c7 -8 11 -27 9 -43 -3
-25 -10 -30 -73 -50 -79 -26 -199 -59 -445 -123 -96 -25 -192 -51 -295 -79
-38 -11 -104 -29 -145 -40 -85 -24 -131 -26 -148 -9 -16 16 -15 63 1 75 6 5
140 44 297 86 157 42 384 103 505 136 233 63 275 70 294 47z m-194 -338 c-4
-51 -12 -99 -19 -105 -6 -7 -45 -21 -86 -32 -41 -11 -127 -34 -190 -51 -63
-17 -146 -40 -185 -50 -38 -10 -97 -26 -129 -35 -33 -8 -63 -12 -67 -8 -3 4
-11 48 -16 96 -8 84 -8 88 12 93 11 3 166 45 345 94 179 48 329 88 334 89 4 0
5 -41 1 -91z m123 -220 c16 -16 15 -63 0 -75 -12 -10 -249 -76 -583 -164 -82
-22 -195 -51 -249 -66 l-100 -26 -23 27 c-53 62 -48 64 442 196 242 65 454
119 471 119 16 1 35 -4 42 -11z m-184 -289 c-2 -75 -27 -275 -37 -286 -14 -18
-486 -18 -510 -1 -12 9 -18 36 -23 94 l-7 81 179 47 c99 26 224 60 279 76 55
15 105 27 110 25 6 -1 10 -17 9 -36z"/>
<path d="M1554 3760 c-26 -10 -38 -53 -24 -80 11 -21 36 -30 185 -62 86 -19
131 -22 325 -22 230 -1 314 8 453 49 67 19 95 51 77 84 -19 36 -43 42 -97 26
-82 -26 -303 -55 -415 -55 -113 0 -292 21 -393 46 -33 8 -67 17 -75 19 -8 2
-25 0 -36 -5z"/>
</g>
</svg>
