<?xml version="1.0" standalone="no"?>
<!DOCTYPE svg PUBLIC "-//W3C//DTD SVG 20010904//EN"
 "http://www.w3.org/TR/2001/REC-SVG-20010904/DTD/svg10.dtd">
<svg version="1.0" xmlns="http://www.w3.org/2000/svg"
 width="402.000000pt" height="410.000000pt" viewBox="0 0 402.000000 410.000000"
 preserveAspectRatio="xMidYMid meet">

<g transform="translate(0.000000,410.000000) scale(0.100000,-0.100000)"
fill="#000000" stroke="none">
<path d="M1638 3806 c-134 -30 -252 -87 -380 -183 -42 -32 -73 -47 -125 -58
-37 -8 -88 -24 -112 -36 -61 -31 -162 -128 -194 -187 -31 -57 -59 -168 -57
-226 3 -61 3 -61 -34 -79 -48 -22 -90 -96 -90 -156 0 -90 60 -159 162 -186
l47 -13 -35 -15 c-89 -39 -134 -151 -96 -240 26 -63 101 -114 168 -116 29 -1
31 -5 43 -91 19 -147 113 -363 206 -479 58 -72 61 -94 17 -116 -65 -31 -133
-92 -180 -162 -27 -40 -56 -73 -64 -73 -28 0 -157 -50 -223 -86 -112 -61 -206
-146 -280 -254 -115 -165 -151 -309 -151 -595 0 -158 9 -185 59 -185 54 0 58
17 64 230 5 215 15 267 71 385 69 145 178 256 321 325 44 21 90 42 103 45 l22
6 0 -189 0 -190 -31 -12 c-16 -7 -42 -29 -57 -48 -24 -31 -27 -44 -27 -113 0
-63 4 -83 21 -106 82 -110 235 -107 311 6 61 90 28 216 -69 267 l-28 15 0 183
c0 102 3 191 6 200 9 24 139 23 149 -1 4 -10 54 -144 112 -298 58 -154 114
-300 123 -325 10 -25 43 -115 75 -200 61 -165 75 -190 110 -190 52 0 39 -29
270 632 131 376 135 384 175 358 10 -6 14 -25 12 -66 -1 -32 2 -94 8 -138 48
-356 286 -636 635 -746 94 -30 317 -39 420 -17 235 50 444 192 573 390 188
288 191 675 7 963 -111 173 -293 312 -485 372 -414 128 -858 -60 -1059 -448
-22 -41 -44 -95 -51 -120 -18 -67 -23 -70 -77 -54 -26 8 -48 16 -50 18 -2 2 6
63 18 137 l22 134 47 50 c104 112 198 321 229 511 l12 70 44 12 c55 15 120 72
136 119 29 89 -12 191 -90 226 -50 22 -49 24 31 41 33 7 94 59 112 95 34 66
27 144 -18 198 -19 23 -24 44 -29 116 -18 256 -201 522 -447 647 -108 55 -272
74 -402 46z m234 -117 c235 -50 475 -324 490 -559 l3 -55 -120 -3 -121 -3 -31
45 c-131 186 -433 194 -584 16 -23 -28 -46 -50 -51 -50 -18 0 -124 115 -153
165 -15 28 -33 53 -39 57 -49 33 -201 -62 -266 -165 -92 -149 -155 -19 -69
143 52 98 129 152 245 170 40 6 79 19 94 31 147 117 236 166 361 199 85 22
165 25 241 9z m-635 -563 c17 -24 29 -47 26 -50 -9 -9 -136 -7 -151 3 -10 6
-1 19 34 50 26 22 50 41 53 41 4 0 21 -20 38 -44z m631 2 c61 -15 152 -103
170 -164 35 -118 -11 -238 -116 -305 -41 -26 -55 -29 -124 -29 -93 0 -135 18
-192 80 -51 56 -69 103 -69 175 0 70 17 117 64 170 65 73 161 100 267 73z
m-453 -245 c1 -38 -3 -63 -10 -63 -5 0 -140 0 -300 0 -326 1 -335 2 -335 65 0
64 7 66 345 63 l299 -3 1 -62z m995 47 c24 -24 26 -72 4 -94 -12 -13 -39 -16
-130 -16 l-114 0 0 65 0 65 110 0 c97 0 112 -2 130 -20z m-917 -277 c70 -101
216 -164 341 -149 78 10 185 66 236 123 22 25 40 50 40 55 0 5 17 8 38 6 l37
-3 -1 -205 c-2 -185 -4 -214 -28 -301 -64 -242 -179 -411 -331 -487 -51 -25
-160 -52 -211 -52 -62 0 -167 26 -225 56 -85 42 -186 152 -237 256 -90 185
-111 280 -119 541 l-6 197 220 0 220 0 26 -37z m-588 -153 c0 -41 -4 -65 -12
-67 -18 -6 -63 42 -63 67 0 25 45 73 63 67 8 -2 12 -26 12 -67z m1451 35 c22
-34 8 -89 -24 -93 -21 -3 -22 0 -22 57 0 68 16 81 46 36z m694 -616 c259 -42
472 -199 589 -436 74 -149 93 -357 48 -523 -76 -275 -282 -478 -557 -550 -262
-69 -556 19 -747 224 -263 280 -279 709 -40 1006 171 211 449 321 707 279z
m-1525 -391 c89 -14 213 0 295 32 45 18 49 18 52 2 2 -9 -3 -44 -12 -77 l-15
-59 -65 -17 c-90 -24 -244 -24 -336 0 -40 10 -76 21 -82 25 -11 7 -32 92 -32
130 l0 24 59 -24 c32 -13 93 -29 136 -36z m-310 -30 c2 -7 6 -30 10 -50 l6
-38 -65 0 c-36 0 -67 4 -70 9 -7 11 81 91 101 91 7 0 15 -6 18 -12z m390 -222
c72 -1 161 3 199 8 l69 9 -6 -24 c-3 -13 -30 -96 -62 -184 -31 -88 -68 -194
-82 -235 -14 -41 -39 -111 -55 -155 -16 -44 -35 -100 -42 -125 -7 -25 -18 -45
-25 -45 -11 0 -116 265 -274 694 l-28 74 88 -8 c48 -5 147 -9 218 -9z m-592
-528 c20 -23 21 -41 6 -69 -25 -48 -99 -42 -117 10 -26 73 60 119 111 59z"/>
<path d="M1710 3051 c-49 -27 -75 -58 -95 -115 -22 -69 -7 -134 45 -186 147
-147 388 25 301 215 -22 48 -44 69 -94 90 -49 20 -114 18 -157 -4z m125 -126
c29 -28 31 -51 9 -83 -18 -27 -69 -30 -96 -5 -26 23 -24 78 4 97 32 22 55 20
83 -9z"/>
<path d="M2592 1678 c-50 -16 -76 -33 -123 -78 -81 -79 -103 -132 -103 -240 1
-90 2 -94 124 -430 23 -63 46 -126 50 -140 69 -206 108 -254 206 -254 91 0
163 75 179 187 11 75 24 61 51 -58 27 -120 157 -171 251 -99 18 14 42 43 53
64 17 34 88 226 206 555 24 67 29 96 29 180 0 92 -2 104 -29 153 -54 96 -157
166 -265 179 -64 7 -163 -18 -226 -58 -25 -16 -48 -29 -51 -29 -3 0 -22 11
-42 25 -47 33 -152 65 -206 64 -22 0 -70 -10 -104 -21z m196 -121 c17 -6 32
-18 32 -27 0 -17 -96 -60 -134 -60 -31 0 -76 -37 -76 -62 0 -34 29 -58 70 -58
74 0 181 50 317 147 77 54 138 82 179 83 97 0 202 -83 223 -177 8 -41 7 -62
-5 -105 -16 -56 -120 -350 -179 -508 -7 -19 -20 -56 -29 -81 -30 -84 -84 -67
-105 32 -39 187 -64 279 -82 298 -27 29 -79 28 -108 -3 -22 -23 -29 -48 -81
-269 -24 -103 -42 -128 -78 -108 -10 5 -39 72 -75 173 -32 89 -83 231 -113
313 -30 83 -58 171 -61 196 -7 58 10 110 50 155 66 76 153 97 255 61z"/>
</g>
</svg>
